<svg xmlns="http://www.w3.org/2000/svg" viewBox="0 0 512 512" fill="none">
  <circle cx="256" cy="256" r="256" fill="#25D366" />
  <path
    fill="#FFFFFF"
    d="M256 96c-88.4 0-160 71.6-160 160 0 28.2 7.4 55.8 21.6 80.2L96 416l82.6-21c23.7 12.9 50.4 19.8 77.4 19.8 88.4 0 160-71.6 160-160S344.4 96 256 96zm92.8 225.6c-3.9 11-19.3 20.3-31.7 22.9-8.5 1.8-19.6 3.2-56.8-12.2-47.4-19.7-78-68.3-80.3-71.4-2.2-3.1-19.3-25.7-19.3-49 0-23.3 12.2-34.8 16.5-39.6 4.3-4.8 9.4-6 12.6-6 3.1 0 6.3 0 9 0.1 2.9 0.1 6.9-1.1 10.8 8.2 3.9 9.4 13.2 32.4 14.3 34.7 1.1 2.3 1.8 5.1 0.3 8.2-1.5 3.1-2.3 5.1-4.6 7.9-2.3 2.8-4.8 6.3-6.8 8.5-2.3 2.3-4.6 4.8-2 9.4 2.6 4.6 11.6 19.1 24.9 31 17.1 15.3 31.5 20.1 36.1 22.4 4.6 2.3 7.3 2 10.1-1.2 2.8-3.1 11.6-13.5 14.7-18.1 3.1-4.6 6.3-3.8 10.5-2.3 4.2 1.5 26.7 12.6 31.3 14.9 4.6 2.3 7.7 3.4 8.8 5.3 1.1 1.9 1.1 11.1-2.8 22.1z"
  />
</svg>
